<svg width="1442" height="602" viewBox="0 0 1442 602" fill="none" xmlns="http://www.w3.org/2000/svg">
<path d="M1441 1H1V600.905C1 600.905 236.847 605.098 416.246 557.793C722.047 477.157 871.417 600.905 1081.6 600.905C1407.89 600.905 1441 534.625 1441 534.625V1Z" fill="#502DB8" stroke="#502DB8"/>
<path fill-rule="evenodd" clip-rule="evenodd" d="M162.603 73L119.301 48L76 73V123L119.301 148L162.603 123V73ZM158.272 75.5L119.301 53L80.3301 75.5V120.5L119.301 143L158.272 120.5V75.5Z" fill="white"/>
<path fill-rule="evenodd" clip-rule="evenodd" d="M195.603 123L152.301 98L109 123V173L152.301 198L195.603 173V123ZM191.272 125.5L152.301 103L113.33 125.5V170.5L152.301 193L191.272 170.5V125.5Z" fill="#6AF795"/>
<path fill-rule="evenodd" clip-rule="evenodd" d="M476.603 524L433.301 499L390 524V574L433.301 599L476.603 574V524ZM472.272 526.5L433.301 504L394.33 526.5V571.5L433.301 594L472.272 571.5V526.5Z" fill="white"/>
<path fill-rule="evenodd" clip-rule="evenodd" d="M720.603 364L677.301 339L634 364V414L677.301 439L720.603 414V364ZM716.272 366.5L677.301 344L638.33 366.5V411.5L677.301 434L716.272 411.5V366.5Z" fill="white"/>
<path fill-rule="evenodd" clip-rule="evenodd" d="M1327.6 364L1284.3 339L1241 364V414L1284.3 439L1327.6 414V364ZM1323.27 366.5L1284.3 344L1245.33 366.5V411.5L1284.3 434L1323.27 411.5V366.5Z" fill="white"/>
<path d="M1310 301L1353.3 326V376L1310 401L1266.7 376V326L1310 301Z" fill="#FFFEFE"/>
<path d="M661 389L704.301 414V464L661 489L617.699 464V414L661 389Z" fill="#6AF795"/>
<path d="M111 484L141.311 501.5V536.5L111 554L80.6891 536.5V501.5L111 484Z" fill="#FFFEFE"/>
<path fill-rule="evenodd" clip-rule="evenodd" d="M101 484L76 469L51 484V514L76 529L101 514V484ZM98.4961 485.5L75.9961 472L53.4961 485.5V512.5L75.9961 526L98.4961 512.5V485.5Z" fill="#6AF795"/>
</svg>
